<?xml version="1.0" encoding="UTF-8"?>
<svg id="Livello_2" data-name="Livello 2" xmlns="http://www.w3.org/2000/svg" viewBox="0 0 208.79 220.51">
  <defs>
    <style>
      .cls-1 {
        fill: #fff;
        stroke-width: 0px;
      }
    </style>
  </defs>
  <g id="Livello_1-2" data-name="Livello 1">
    <path class="cls-1" d="M21.28,200.75c2.52-.74,4.4-.09,5.88,1.17,5.24,4.45,11.63,6.42,17.92,8.65,2.22.79,4.56,1.41,6.57,2.57,4.4,2.55,9.29,3.05,14.11,3.9,2.44.43,4.94.81,7.41.77,3.38-.05,6.78-.4,10.14-.86,5.33-.72,10.62-1.74,15.95-2.44,4.38-.57,8.85-.59,13.2-1.34,6.33-1.1,12.55-.25,18.85-.02,8.99.33,18.15.79,26.84-2.42,2.64-.98,5.1-2.53,7.51-4.04,2.5-1.57,4.94-3.28,7.23-5.14,2.77-2.26,5.46-4.63,7.98-7.15,7.53-7.53,12.89-16.46,15.61-26.74,1.34-5.08,1.94-10.4,2.43-15.65.78-8.33,1.93-16.74.54-25.07-1.21-7.27-3.83-14.12-8.24-20.23-1.18-1.63-1.88-3.83-2.11-5.85-.39-3.53-.65-7.17-.25-10.68.94-8.22,3.58-15.74,9.52-21.96,3.83-4.02,5.6-9.15,6.74-14.67,1.03-4.98.1-9.39-1.82-13.78-.72-1.65-1.72-3.25-2.9-4.6-2.99-3.41-5.91-7.03-10.12-9-2.03-.95-4.41-1.52-6.65-1.62-6.82-.3-13.37.83-19.44,4.3-2.51,1.44-5.21,2.65-7.96,3.55-3.59,1.18-6.83.25-9.81-2.21-4.01-3.32-5.39-7.95-6.91-12.57-.44-1.33-.83-2.67-1.33-3.97-1-2.61-2.77-4.46-5.37-5.63-7.62-3.44-15.51-5.7-23.95-5.4-8.55.31-17.13.48-25.65,1.21-9.24.79-18.06,3.57-26.74,6.8-8.79,3.27-17.13,7.46-25.28,12.08-12.07,6.84-20.09,16.82-24.67,29.9-3.34,9.53-3.54,19.26-3.18,29.11.13,3.4.33,6.8.72,10.18.76,6.63,1.77,13.23,2.52,19.86.96,8.44,1.6,16.92,2.69,25.34,1.14,8.78,2.31,17.57,4.1,26.23,1.25,6.03,3.46,11.88,6.68,17.25,2.64,4.4,6.67,6.91,11.46,8.43,6.83,2.17,13.73,3.78,20.93,4.36,4.35.35,8.66,1.78,12.88,3.08,4.63,1.42,9.33,2.1,14.13,2.4,8.44.53,16.86.62,25.26-.59,6.66-.96,13.37-1.62,19.99-2.82,7.99-1.45,15.17-4.98,21.76-9.7,4.92-3.53,10.07-6.82,14.62-10.79,4.69-4.09,8.17-9.17,9.5-15.57,1.11-5.35.68-10.6.24-15.94-.69-8.22-3.1-15.83-7.43-22.81-1.43-2.3-3.37-4.27-4.98-6.47-1.43-1.95-2.97-3.87-4.01-6.03-1.79-3.7-1.31-4.49,2.18-6.74,4.12-2.66,8.26-5.32,12.12-8.32,7.17-5.58,10.14-13.1,9.28-22.12-.45-4.65-1.58-9.08-4.38-12.96-1.91-2.65-3.45-3.37-7.49-2.04-3.68,1.21-7.01,3.15-9.74,5.91-5.24,5.28-11.28,9.55-17.11,14.1-6.75,5.27-13.17,10.96-18.64,17.61-.73.88-1.37,1.88-1.84,2.91-.57,1.25-.39,2.48.72,3.47,1.83,1.64,4.1,2.11,6.4,2.29,3.68.28,7.15,1.15,10.49,2.75,3.12,1.49,6.35,2.74,9.52,4.13,4.57,2,7,5.55,7.68,10.46.53,3.83,1.57,7.62,1.83,11.47.46,6.76-1.47,13.21-3.17,19.68-1.61,6.13-5.43,10.68-10,14.67-3.1,2.7-6.42,5.17-9.84,7.44-4.04,2.66-8.88,3.12-13.45,4.32-5.51,1.45-10.96,3.14-16.5,4.46-2.75.66-5.63.85-8.47,1.04-9.3.6-18.62.31-27.79-1.12-4.05-.63-8-2.82-11.66-4.9-4.78-2.71-9.88-3.95-15.2-4.69-3.58-.5-6.76-1.77-9.35-4.41-2-2.03-4.12-3.93-6.2-5.88-3.89-3.64-5.33-8.45-5.64-13.46-.82-13.33-1.51-26.68-1.85-40.03-.2-7.76.21-15.55.68-23.3.23-3.72,1.14-7.41,1.93-11.07.54-2.53,1.27-5.04,2.15-7.48,1.75-4.89,5.29-8.7,8.58-12.49,1.97-2.27,5.12-3.56,7.84-5.12,2.25-1.29,4.56-2.55,6.99-3.44,3.63-1.34,7.38-2.37,11.09-3.5,1.73-.52,3.52-.87,5.23-1.44,5.05-1.66,10.06-3.44,15.11-5.08,2.02-.66,4.1-1.12,6.16-1.61,3.82-.9,7.66-1.74,11.48-2.64,4.39-1.03,8.71-.36,12.98.62,5.5,1.26,10.85,2.92,15.73,6,6.79,4.28,9.66,11.82,6.7,19.24-2.02,5.06-3.98,10.23-6.78,14.86-3.02,5.01-6.9,9.51-10.55,14.12-4.4,5.56-9.3,10.78-11.8,17.61-.79,2.16-1.63,4.32-2.16,6.55-.8,3.4.53,5.3,4.03,5.27,5.09-.03,10.2-.28,15.26-.84,8.79-.97,16.73.93,23.99,5.98,2.48,1.72,3.64,4.03,3.68,6.92.07,5.61-1.35,10.61-5.59,14.68-4.24,4.08-8.1,8.56-12.31,12.67-4.54,4.44-10.25,6.52-16.44,7.48-3.24.5-6.43,1.28-9.67,1.73-5.21.71-10.42.5-15.61-.33-6.52-1.05-13.13-1.71-19.55-3.17-5.59-1.27-11.05-3.23-15.36-7.45-4.51-4.42-5.74-9.66-4.53-15.7.66-3.27,1.51-6.54,1.7-9.84.2-3.54-.23-7.12-.46-10.67-.2-3.08-.48-6.16-.76-9.23-.37-4.1-.49-8.25-1.22-12.29-1.03-5.69-1.05-11.24,1.05-16.65,1.84-4.75,3.6-9.57,5.92-14.09,2.77-5.41,6.96-9.74,12.67-12.06,2.39-.97,5.2-1.01,7.84-1.22,6.05-.48,11.65.92,16.84,4.14,4.95,3.07,5.91,8.39,4.84,13.23-.86,3.91-3.3,7-5.42,10.24-6.46,9.83-13.09,19.55-19.3,29.54-2,3.23-3.15,7.08-4.21,10.78-1.27,4.45,1.1,7.88,4.39,10.44,6.16,4.8,12.87,8.7,20.25,11.37,5.54,2.01,11.05,1.9,16.6.13,1.33-.42,2.65-.87,3.97-1.34,2.16-.78,4.07-1.87,5.24-3.99.56-1.02,1.41-1.65,2.7-1.23,1.17.38,1.38,1.43.61,2.41-3.9,4.98-9.63,5.97-15.29,6.91-10.82,1.78-19.91-2.92-28.82-8.11-3.46-2.02-6.93-3.98-9.62-7.1-3.74-4.33-4.64-9.57-2.09-14.71,2.53-5.09,4.94-10.25,8.55-14.76,1.56-1.95,2.54-4.37,3.89-6.51,1.12-1.77,2.36-3.48,3.63-5.15,1.71-2.25,3.8-4.27,5.21-6.68,2.38-4.08,4.83-8.24,6.4-12.66,2.14-6.03-.12-9.85-5.17-12.08-7.04-3.11-14.26-3.72-21.32-.35-3.95,1.89-6.6,5.5-9.01,9.1-3.1,4.64-4.84,9.89-6.56,15.16-1.99,6.08-1.54,12.06-.05,18.12.44,1.8.5,3.73.52,5.61.05,5.04.08,10.03,1.3,15,1.26,5.12.21,10.24-.79,15.33-.5,2.55-.71,5.16-1.02,7.75-.63,5.21,4.02,11.3,8.42,13.2,4.54,1.96,9.13,3.48,14.1,4.01,6.81.73,13.55,2.2,20.37,2.66,8.57.58,16.98-1.13,24.98-4.1,3.3-1.23,6.39-3.57,9-6.02,4.41-4.15,8.5-8.66,12.44-13.27,3.26-3.83,3.92-8.59,3.08-13.41-.23-1.3-1.68-2.62-2.89-3.49-6.62-4.78-14.1-5.21-21.94-4.39-5.23.55-10.54.7-15.8.52-4.73-.16-7.62-4.15-6.28-8.6,2.37-7.92,6.16-15.02,12.01-21.14,4.33-4.52,7.95-9.76,11.55-14.91,2.34-3.36,4.43-7,6-10.78,1.9-4.56,3.44-9.41,2.66-14.47-.61-3.93-3.03-6.83-6.57-8.68-9.36-4.9-19.12-6.77-29.58-4.27-8.91,2.13-17.67,4.73-26.33,7.74-4.22,1.47-8.83,1.85-12.99,3.44-6.84,2.61-13.77,5.28-19.11,10.61-5.56,5.55-8.52,12.45-9.96,20.09-3.23,17.12-2.41,34.38-1.72,51.62.28,6.91,1.07,13.8,1.6,20.7.4,5.19,2.12,9.68,6.46,12.94,1.25.94,2.32,2.14,3.36,3.33,2.53,2.91,5.75,4.42,9.54,4.74,5.98.5,11.47,2.35,16.55,5.59,5.1,3.25,10.72,4.68,16.79,4.6,7.04-.09,14.1.26,21.12-.06,3.58-.16,7.13-1.24,10.65-2.11,6.06-1.49,12.06-3.25,18.14-4.7,4.45-1.06,8.13-3.47,11.62-6.2,2.09-1.64,3.91-3.63,5.9-5.4,6.27-5.56,8.04-13.2,9.82-20.88,1.86-8.01.48-15.8-1.26-23.59-.57-2.57-2.17-4.62-4.54-5.64-5.45-2.34-10.97-4.54-16.56-6.53-2.07-.74-4.42-.69-6.63-1.03-2.82-.43-5.1-1.79-6.91-4.01-.9-1.1-1.05-2.19-.64-3.55.87-2.92,2.77-5.14,4.86-7.17,3.35-3.25,6.87-6.31,10.32-9.45,1.97-1.8,3.86-3.7,5.94-5.37,4.71-3.78,9.56-7.38,14.24-11.19,2.3-1.87,4.14-4.35,6.55-6.01,2.56-1.77,5.46-3.17,8.39-4.24,4.4-1.61,9.47.88,11.95,5.37,3.7,6.71,4.61,13.87,3.56,21.35-.85,6.04-4.18,10.72-8.7,14.47-3.1,2.57-6.73,4.49-10.04,6.81-1.53,1.08-2.98,2.33-4.24,3.71-.51.56-.83,1.88-.52,2.51.99,2.05,1.97,4.29,3.55,5.84,5.12,5.02,7.76,11.38,10.41,17.79,2.04,4.91,2.28,10.18,2.84,15.36.39,3.64.33,7.35.18,11.02-.2,4.94-2.07,9.44-5.13,13.21-2.77,3.41-5.81,6.77-9.32,9.36-6.32,4.67-12.95,8.95-19.68,13-4.92,2.97-10.57,4.24-16.19,5.29-10.87,2.02-21.84,3.45-32.91,3.44-6.71,0-13.45-.48-20.13-1.16-3.34-.34-6.56-1.74-9.87-2.47-4.23-.93-8.5-1.63-12.74-2.49-4.62-.93-9.25-1.81-13.83-2.92-2.7-.65-5.38-1.52-7.93-2.62-5.53-2.4-9.46-6.36-11.38-12.24-.95-2.91-2.21-5.72-3.39-8.55-1.88-4.53-2.7-9.27-3.08-14.13-.14-1.85-.66-3.66-.94-5.5-.36-2.4-.7-4.81-.95-7.22-.83-8.08-1.64-16.16-2.39-24.24-.22-2.4-.13-4.84-.35-7.24-.12-1.31-.72-2.57-.89-3.88-.72-5.41-1.36-10.84-2.05-16.26-.15-1.2-.49-2.39-.55-3.59-.25-5.64-.79-11.3-.52-16.91.26-5.29,1.31-10.56,2.22-15.8.26-1.49,1.37-2.75,1.91-4.28,1.36-3.85,2.66-7.82,5.39-11.08,2.33-2.78,4.15-6.04,6.75-8.51,3.34-3.18,7.09-6.01,10.94-8.56,3.78-2.5,7.85-4.59,11.9-6.63,2.35-1.19,4.91-1.98,7.4-2.87,6.89-2.46,13.8-4.87,20.71-7.31,6.12-2.16,12.57-2.46,18.89-3.49,5.78-.95,11.57-.85,17.37-1.08.48-.02.96-.12,1.45-.17,1.72-.17,3.34-.5,5.14.29,1.27.56,2.98.04,4.47.21,3.03.36,6.15.53,9.04,1.4,3.69,1.11,7.25,2.72,10.77,4.32,4.59,2.1,6.43,6.34,8.05,10.76,1.1,3,2.1,6.13,3.77,8.82,2.67,4.31,6.05,4.62,10.98,2.56,4.64-1.94,9.05-4.66,13.86-5.91,7.22-1.87,14.85-2.69,21.42,2.01,7.92,5.67,14.93,12.35,16.14,22.77.74,6.38-.83,12.46-4.29,17.93-1.55,2.46-3.12,4.97-5.06,7.11-4.11,4.53-5.78,10.06-6.92,15.81-1.04,5.23-.84,10.49.5,15.67.22.85.73,1.67,1.27,2.4,5.95,8.11,8.73,17.33,8.88,27.24.12,8.74-.1,17.5-2.03,26.11-.13.59-.21,1.2-.22,1.81-.08,7.94-3.17,14.92-7.08,21.56-3.75,6.37-8.76,11.7-14.16,16.76-3.72,3.49-7.87,6.24-11.99,9.12-6.87,4.8-14.71,6.34-22.89,6.7-2.79.12-5.57.33-8.36.32-2.9-.01-5.82-.12-8.71-.42-5.36-.54-10.65-.29-15.95.74-2.37.46-4.84.4-7.25.73-3.89.54-7.75,1.3-11.65,1.79-3.96.5-7.99.54-11.92,1.19-7.98,1.33-15.68-.32-23.41-1.74-1.41-.26-2.78-.85-4.13-1.37-5.36-2.08-10.68-4.24-16.05-6.28-5.27-2.01-10-4.93-14.54-8.2-.49-.35-.79-.96-1.36-1.67Z"/>
  </g>
</svg>