<?xml version="1.0" encoding="UTF-8"?>
<svg id="Livello_2" data-name="Livello 2" xmlns="http://www.w3.org/2000/svg" viewBox="0 0 98.18 126.3">
  <defs>
    <style>
      .cls-1 {
        fill: #fff;
        stroke: #fff;
        stroke-linecap: round;
        stroke-linejoin: round;
        stroke-width: 4px;
      }
    </style>
  </defs>
  <g id="Livello_1-2" data-name="Livello 1">
    <g>
      <path class="cls-1" d="M4.31,68.33c-.5-1.5-1-3-1.57-4.69-.24.47-.42.8-.64,1.24-.04-.24-.1-.39-.09-.54.45-4.95,1.28-9.82,3.08-14.5,1.89-4.9,3.29-10.04,5.68-14.68,2.25-4.39,5.59-8.12,9.59-11.26,2.93-2.3,5.5-5.12,8.02-7.89,2.5-2.76,4.95-5.4,8.38-7.14,2.89-1.47,5.37-3.73,8.21-5.33,1.52-.85,3.39-1.34,5.14-1.46,6.2-.44,12.03.7,17.24,4.43,2.89,2.07,5.18,4.39,5.66,8.07.02.18.07.36.14.52.04.11.15.18.1.13,2.57-.13,5.02-.39,7.47-.34,3.88.08,7.41,1.24,10.21,4.09,2.42,2.47,2.77,4.65,1.31,7.8-2.06,4.44-5.6,7.61-9.28,10.61-3.34,2.72-6.91,5.15-10.27,7.85-3.73,3-6.2,6.8-6.59,11.72-.02.23.04.46.08.98,2.46-.22,4.84-.54,7.24-.61,3.09-.09,6.2-.14,9.27.1,4.42.34,7.33,3.3,10.39,6.17,3.48,3.26,3.72,6.85,2.27,10.95-3.13,8.86-9.02,15.7-15.91,21.84-4.8,4.28-10.07,7.82-16.04,10.21-5.35,2.14-10.92,2.63-16.38.7-5.16-1.83-8.49-5.75-10.94-10.63-2.54-5.05-1.87-10.16-1.01-15.32,1.08-6.42,2.35-12.84,1.1-19.34-.69-3.55-1.87-7.01-2.95-10.48-1.73-5.55-3.71-11.03-5.26-16.64-.51-1.83-.4-4.05.14-5.89.75-2.56,3.31-3.67,5.63-4.16,6.52-1.39,13.09-2.61,19.69-3.46,2.65-.34,5.52-.64,8.17.89,3.63,2.09,3.91,4.45,2.6,7.85-1.22,3.15-2.91,6.15-4.6,9.08-2.52,4.36-5.33,8.55-7.83,12.92-1.95,3.42-3,7.19-2.8,11.17.2,3.76,2.68,6.15,5.6,8,.66.42,2.03-.27,3.08-.44.8-.13,1.68-.51,2.39-.31.65.19,1.39.92,1.58,1.57.1.34-.78,1.28-1.38,1.48-3.8,1.26-6.94.3-9.98-2.43-4.38-3.94-5.29-8.43-3.89-13.94,1.22-4.82,3.71-8.94,6.2-13.1,2.18-3.64,4.67-7.1,6.78-10.77,1.13-1.97,1.88-4.2,2.57-6.39.69-2.2-.55-3.83-2.95-3.62-4.76.43-9.51,1.05-14.22,1.82-2.86.46-5.69,1.22-8.46,2.07-4.2,1.3-5.66,3.4-4.87,8.5.99,6.44,3.44,12.38,5.81,18.36,2.64,6.65,3.36,13.48,2.41,20.55-.67,4.93-1.44,9.87-1.73,14.82-.58,10.12,8.78,18.06,18.63,16.14,7.15-1.39,13.08-5.12,18.58-9.58,5.4-4.38,10.35-9.26,13.74-15.42,1.54-2.8,2.96-5.78,3.74-8.85,1.37-5.44-4.1-11.84-10.23-12.06-3.74-.14-7.5.41-11.26.53-2.22.07-4.5.16-6.67-.21-1.93-.32-2.17-1.3-1.94-3.22.66-5.31,2.95-9.75,6.99-13.21,2.11-1.81,4.51-3.28,6.68-5.02,3.44-2.76,6.89-5.51,10.13-8.5,1.29-1.19,2.21-2.91,2.96-4.55,1.62-3.58-.68-7.49-4.65-7.52-3.29-.02-6.58.65-9.87,1.04-.9.11-1.78.45-2.67.46-1.39.01-2.43-1.19-2.44-2.59-.05-6.65-4.63-11.46-11.44-12.02-.12,0-.25,0-.36-.01-6.02-1.04-11.16.34-16.05,4.34-4.31,3.52-8.97,6.55-12.62,10.88-1.89,2.24-4.38,3.98-6.57,5.98-4.63,4.21-8.69,8.94-10.89,14.83-2.31,6.18-4.2,12.52-6.05,18.86-.62,2.12-.53,4.45-.75,6.68-.06.63-.07,1.26-.11,1.89-.15,0-.3,0-.45,0Z"/>
      <path class="cls-1" d="M14.79,58.56c2.46.19,3.55,1.2,4.42,3,1.95,4.06,2.77,8.38,3.51,12.76,1.47,8.7,2.08,17.48,2.08,26.28,0,5.44,1.76,10.23,4.21,14.9,1.44,2.74,2.72,5.58,5.58,7.25.31.18.39.78.57,1.19-.43.13-.94.47-1.27.34-1.21-.48-2.62-.85-3.49-1.73-4.6-4.61-7.34-10.38-8.22-16.69-.94-6.7-.8-13.54-1.34-20.3-.58-7.37-1.41-14.72-4.12-21.7-.39-1.02-1.01-1.95-1.4-2.96-.26-.68-.33-1.43-.52-2.34Z"/>
    </g>
  </g>
</svg>